<svg width="509" height="461" viewBox="0 0 509 461" fill="none" xmlns="http://www.w3.org/2000/svg">
<path d="M430.684 91.7665C485.587 148.877 523.332 231.791 503.773 294.75C483.871 357.709 406.664 400.37 331.516 429.27C256.711 458.169 183.965 473.307 128.376 448.536C72.4443 423.765 32.983 358.741 13.0808 285.117C-6.47826 211.836 -7.16455 129.955 32.2967 76.2847C72.1011 22.6144 151.71 -2.84449 227.544 0.251867C303.722 3.00419 375.781 34.6558 430.684 91.7665Z" fill="#7C39ED"/>
<path d="M46.2974 186L54.2557 222.889L41.13 231.257L25.5769 231.903L11 197.095L46.2974 186ZM41.9195 195.386L30.9267 198.841L19.7393 202.357L21.635 206.518L32.2874 203.17L32.8858 202.982L32.3657 203.419L23.4462 210.919L25.1166 215.044L35.0495 211.957L40.373 210.302L41.8061 216.051L37.2686 219.018L37.2673 219.013L37.23 219.037L32.0411 219.335L30.6486 215.924L30.6326 215.929L26.1735 217.331L26.1578 217.336L28.8667 223.914L38.7548 223.745L38.7533 223.74L38.7711 223.74L46.9442 218.285L43.8917 204.493L33.7094 207.693L33.6843 207.701L33.7059 207.682L42.8428 199.852L41.9195 195.386Z" fill="white" fill-opacity="0.1"/>
<g clip-path="url(#clip0_29_61)">
<path fill-rule="evenodd" clip-rule="evenodd" d="M85.5921 82.6583C81.7212 82.0014 79.5321 79.7313 78.7217 77.1107L82.4493 75.7208C83.0956 77.3322 84.0738 78.6007 86.1302 78.9497C87.856 79.2427 89.105 78.5663 89.3072 77.375C89.6114 75.5827 87.339 74.4765 85.7736 73.4668C82.9828 71.6764 81.2593 69.7293 81.8357 66.3331C82.3662 63.2075 85.153 61.2296 88.8774 61.8618C91.5261 62.3113 93.2772 63.5577 94.2366 66.2013L90.6374 67.7355C90.1403 66.3343 89.4521 65.6968 88.2609 65.4946C87.0386 65.2872 86.133 65.9304 85.9613 66.9419C85.749 68.193 86.4373 68.8304 88.0938 69.908C91.5679 72.15 94.1887 73.8928 93.4877 78.0233C92.8507 81.7766 89.5539 83.3307 85.5921 82.6583ZM77.0579 74.7445C76.3249 79.0635 73.2777 80.8949 69.5843 80.268C66.248 79.7018 64.4659 78.0866 63.8597 75.7016L63.8265 75.6959L63.8109 75.6933L63.802 75.6918L67.5962 73.8964C68.0536 75.1676 68.5041 76.0909 69.9326 76.3333C71.3035 76.566 72.2776 76.0171 72.6311 73.9341L75.1058 59.3529L79.5424 60.1058L77.0579 74.7445ZM51 80.3656L95.3656 87.8952L102.895 43.5297L58.5297 36L51 80.3656Z" fill="white" fill-opacity="0.1"/>
</g>
<g clip-path="url(#clip1_29_61)">
<path d="M318.4 60.5199C315.714 61.2746 313.608 62.6484 312.232 64.7113C310.866 66.7594 310.32 69.3357 310.453 72.3179C310.483 72.9688 310.969 73.5075 311.614 73.6024C312.258 73.6972 312.88 73.3214 313.095 72.7065C313.591 71.2894 314.219 70.3454 314.911 69.7568C315.582 69.1868 316.392 68.8818 317.415 68.8694C318.446 68.8567 319.401 69.4008 320.923 70.3414L320.972 70.3718C322.12 71.0809 323.52 71.946 325.241 72.4388C327.027 72.9502 329.098 73.049 331.608 72.3437C334.294 71.589 336.4 70.2152 337.776 68.1522C339.142 66.1042 339.688 63.528 339.555 60.5457C339.525 59.8948 339.039 59.3561 338.394 59.2613C337.75 59.1664 337.128 59.5422 336.913 60.1571C336.417 61.5742 335.789 62.5182 335.096 63.1069C334.426 63.6769 333.616 63.9818 332.593 63.9943C331.562 64.0069 330.607 63.4629 329.085 62.5222L329.035 62.4918C327.888 61.7827 326.488 60.9176 324.767 60.4248C322.981 59.9134 320.91 59.8146 318.4 60.5199Z" fill="white" fill-opacity="0.1"/>
<path d="M312.547 74.8749C309.861 75.6296 307.756 77.0034 306.38 79.0663C305.014 81.1144 304.468 83.6906 304.601 86.673C304.63 87.3238 305.117 87.8624 305.761 87.9573C306.406 88.0521 307.027 87.6764 307.243 87.0614C307.739 85.6445 308.366 84.7004 309.059 84.1118C309.73 83.5417 310.54 83.2368 311.562 83.2243C312.594 83.2117 313.548 83.7558 315.071 84.6965L315.12 84.7268C316.268 85.4358 317.668 86.301 319.389 86.7939C321.175 87.3053 323.246 87.404 325.756 86.6987C328.442 85.944 330.547 84.5703 331.923 82.5072C333.289 80.4591 333.835 77.883 333.702 74.9006C333.673 74.2498 333.186 73.7111 332.542 73.6162C331.897 73.5214 331.276 73.8972 331.06 74.5121C330.564 75.9292 329.937 76.8732 329.244 77.4618C328.573 78.0318 327.763 78.3368 326.741 78.3493C325.709 78.3618 324.755 77.8178 323.232 76.8772L323.183 76.8468C322.035 76.1377 320.635 75.2726 318.914 74.7797C317.128 74.2684 315.057 74.1696 312.547 74.8749Z" fill="white" fill-opacity="0.1"/>
</g>
<g clip-path="url(#clip2_29_61)">
<path fill-rule="evenodd" clip-rule="evenodd" d="M103.128 139.565C108.169 128.207 121.463 123.087 132.821 128.128C144.179 133.169 149.3 146.463 144.259 157.821C141.11 164.915 134.742 169.576 127.637 170.847L120.588 136.514C120.456 135.876 119.928 135.395 119.279 135.325C118.631 135.255 118.012 135.611 117.747 136.208L108.619 156.773L111.361 157.99L118.59 141.703L124.643 171.178C121.286 171.323 117.845 170.714 114.565 169.258C103.207 164.217 98.0868 150.923 103.128 139.565ZM127.506 158.591L134.808 142.139L137.55 143.356L130.248 159.808L127.506 158.591Z" fill="white" fill-opacity="0.1"/>
</g>
<g clip-path="url(#clip3_29_61)">
<path d="M179 31.2283V48.9779L184.125 51.9384V40.1031L194.375 46.0224L204.625 40.1031V46.0224L194.375 51.9384V57.8561L204.625 63.772L220 54.8972V43.0619L214.875 46.0224V51.9384L204.625 57.8561L199.5 54.8972L209.75 48.9779V31.2283L194.375 40.1031L179 31.2283ZM220 31.2283L214.875 34.1837V40.1031L220 37.1442V31.2283Z" fill="white" fill-opacity="0.1"/>
</g>
<g clip-path="url(#clip4_29_61)">
<path d="M422.5 257.539C423.469 257.539 424.416 257.826 425.222 258.363C426.028 258.9 426.657 259.663 427.03 260.557C427.403 261.451 427.503 262.435 427.318 263.386C427.133 264.337 426.67 265.212 425.989 265.9C425.308 266.589 424.438 267.06 423.489 267.256C422.541 267.451 421.555 267.361 420.658 266.998C419.76 266.634 418.99 266.013 418.444 265.213C417.898 264.412 417.602 263.469 417.591 262.5C417.588 261.852 417.712 261.21 417.957 260.61C418.202 260.009 418.562 259.463 419.018 259.003C419.474 258.542 420.016 258.176 420.613 257.925C421.211 257.673 421.852 257.542 422.5 257.539ZM410.346 283.5C412 284.498 415.596 282.975 419.796 279.038C418.392 277.442 417.07 275.778 415.833 274.05C413.715 273.813 411.612 273.462 409.532 273C408.194 278.618 408.692 282.476 410.346 283.5ZM412.21 268.433L411.449 267.094C411.152 267.831 410.898 268.585 410.688 269.351C411.396 269.509 412.184 269.64 412.998 269.771L412.21 268.433ZM429.377 266.438L431.504 262.5L429.377 258.563C428.59 257.171 427.75 255.938 426.989 254.704C425.571 254.625 424.075 254.625 422.5 254.625C420.925 254.625 419.429 254.625 418.011 254.625C417.25 255.859 416.41 257.093 415.623 258.484L413.496 262.5L415.623 266.438C416.41 267.829 417.25 269.063 418.011 270.296C419.429 270.296 420.925 270.296 422.5 270.296C424.075 270.296 425.571 270.296 426.989 270.296C427.75 269.063 428.59 267.829 429.377 266.438ZM422.5 248.798C422.001 249.375 421.476 249.979 420.951 250.688H424.049C423.524 249.979 422.999 249.375 422.5 248.798ZM422.5 276.203C422.999 275.625 423.524 275.021 424.049 274.313H420.951C421.476 275.021 422.001 275.625 422.5 276.203ZM434.628 241.5C433 240.503 429.377 242.025 425.204 245.963C426.608 247.558 427.93 249.222 429.167 250.95C431.283 251.153 433.386 251.468 435.468 251.895C436.806 246.278 436.308 242.419 434.628 241.395M432.79 256.463L433.551 257.801C433.848 257.064 434.102 256.31 434.312 255.544C433.604 255.386 432.816 255.255 432.002 255.124L432.79 256.463ZM436.596 238.088C440.455 240.293 440.875 246.094 439.221 252.866C445.889 254.835 450.692 258.116 450.692 262.526C450.692 266.936 445.889 270.218 439.221 272.186C440.849 278.959 440.429 284.76 436.596 286.965C432.764 289.17 427.54 286.65 422.5 281.846C417.46 286.65 412.236 289.17 408.377 286.965C404.519 284.76 404.125 279.09 405.752 272.186C399.085 270.218 394.281 266.936 394.281 262.526C394.281 258.116 399.085 254.809 405.752 252.84C404.125 246.068 404.545 240.266 408.377 238.061C412.21 235.856 417.46 238.376 422.5 243.18C427.54 238.376 432.764 235.856 436.596 238.061M435.835 262.5C436.747 264.432 437.553 266.413 438.25 268.433C443.762 266.779 446.86 264.416 446.86 262.5C446.86 260.584 443.684 258.221 438.25 256.568C437.553 258.587 436.747 260.568 435.835 262.5ZM409.165 262.5C408.253 260.568 407.447 258.587 406.75 256.568C401.238 258.221 398.14 260.584 398.14 262.5C398.14 264.416 401.316 266.779 406.75 268.433C407.447 266.413 408.253 264.432 409.165 262.5ZM432.79 268.433L432.002 269.771C432.816 269.771 433.604 269.509 434.312 269.351C434.102 268.585 433.848 267.831 433.551 267.094L432.79 268.433ZM425.125 279.038C429.299 282.975 433 284.498 434.549 283.5C436.098 282.503 436.727 278.723 435.389 273C433.307 273.427 431.204 273.743 429.089 273.945C427.855 275.709 426.532 277.408 425.125 279.038ZM412.21 256.568L412.998 255.229C412.184 255.229 411.396 255.491 410.688 255.649C410.898 256.415 411.152 257.169 411.449 257.906L412.21 256.568ZM419.875 245.963C415.622 242.025 412 240.503 410.346 241.5C408.692 242.498 408.194 246.278 409.532 252C411.614 251.573 413.717 251.258 415.833 251.055C417.092 249.29 418.442 247.59 419.875 245.963Z" fill="white" fill-opacity="0.1"/>
</g>
<g clip-path="url(#clip5_29_61)">
<path fill-rule="evenodd" clip-rule="evenodd" d="M368.682 177.92L368.666 177.917L349.168 174.377L348.812 178.987L367.396 182.361C366.404 186.277 364.055 194.527 363.058 198.294L352.087 199.337L352.085 199.346L352.06 199.353L342.283 193.781L343.143 184.971L348.263 185.9L347.778 190.635L353.08 193.788L353.094 193.79L359.142 192.785L361 185.875L343.326 182.666C343.405 181.743 344.446 169.76 344.415 168.839L369.961 173.477C369.546 174.944 369.122 176.452 368.682 177.92ZM338.481 158.411L334.731 200.153L350.606 207.364L368.062 206.117L379.215 165.806L338.481 158.411Z" fill="white" fill-opacity="0.1"/>
</g>
<g clip-path="url(#clip6_29_61)">
<path d="M105.154 238.737C105.63 237.998 106.466 237.572 107.343 237.622L130.687 238.956C131.552 239.005 132.326 239.511 132.72 240.283L143.412 261.28C143.806 262.053 143.759 262.976 143.29 263.705L130.639 283.368C130.163 284.107 129.327 284.533 128.45 284.483L122.614 284.15C121.27 284.073 120.243 282.921 120.319 281.577C120.396 280.233 121.548 279.206 122.892 279.283L127.308 279.535L138.433 262.245L129.011 243.743L108.485 242.571L97.3606 259.861L106.782 278.362L110.977 278.602C112.137 278.414 113.408 277.865 114.081 277.04C114.393 276.657 114.609 276.182 114.633 275.519C114.659 274.82 114.475 273.772 113.723 272.296L105.98 257.091C105.369 255.892 105.846 254.424 107.046 253.813C108.246 253.202 109.713 253.68 110.324 254.879L118.067 270.084C119.085 272.083 119.569 273.957 119.505 275.697C119.44 277.473 118.809 278.955 117.86 280.12C116.05 282.34 113.256 283.231 111.388 283.468C111.24 283.486 111.091 283.491 110.942 283.483L105.106 283.149C104.241 283.1 103.467 282.595 103.073 281.822L92.3811 260.825C91.9877 260.053 92.0342 259.129 92.5033 258.4L105.154 238.737ZM114.707 252.768C115.16 250.815 116.497 249.001 118.932 247.76C121.193 246.609 123.309 246.507 125.102 247.147C126.37 247.599 127.031 248.993 126.579 250.261C126.127 251.529 124.732 252.191 123.464 251.738C123.074 251.599 122.349 251.491 121.144 252.105C119.863 252.757 119.553 253.453 119.457 253.869C119.332 254.405 119.47 254.934 119.592 255.174C119.715 255.415 120.062 255.837 120.569 256.052C120.961 256.219 121.707 256.377 122.988 255.725C123.202 255.616 123.425 255.541 123.65 255.499C125.576 254.844 127.353 254.953 128.859 255.591C130.591 256.326 131.723 257.658 132.276 258.745C132.829 259.832 133.241 261.531 132.817 263.363C132.364 265.317 131.028 267.131 128.592 268.371C126.332 269.522 124.215 269.624 122.423 268.985C121.154 268.533 120.493 267.138 120.945 265.87C121.397 264.602 122.792 263.941 124.06 264.393C124.45 264.532 125.175 264.641 126.38 264.027C127.661 263.375 127.971 262.678 128.068 262.263C128.192 261.727 128.055 261.198 127.932 260.957C127.809 260.716 127.462 260.294 126.956 260.079C126.563 259.913 125.818 259.754 124.536 260.407C124.322 260.516 124.099 260.591 123.874 260.632C121.948 261.287 120.171 261.179 118.665 260.54C116.933 259.806 115.801 258.473 115.248 257.387C114.695 256.3 114.283 254.601 114.707 252.768Z" fill="white" fill-opacity="0.1"/>
</g>
<defs>
<clipPath id="clip0_29_61">
<rect width="45" height="45" fill="white" transform="translate(58.5297 36) rotate(9.63237)"/>
</clipPath>
<clipPath id="clip1_29_61">
<rect width="40.7893" height="40.7893" fill="white" transform="translate(296.926 59.4922) rotate(-15.695)"/>
</clipPath>
<clipPath id="clip2_29_61">
<rect width="45" height="45" fill="white" transform="translate(112.256 119) rotate(23.9341)"/>
</clipPath>
<clipPath id="clip3_29_61">
<rect width="41" height="41" fill="white" transform="translate(179 27)"/>
</clipPath>
<clipPath id="clip4_29_61">
<rect width="63" height="63" fill="white" transform="translate(391 231)"/>
</clipPath>
<clipPath id="clip5_29_61">
<rect width="46" height="46" fill="white" transform="translate(336.218 158) rotate(10.2906)"/>
</clipPath>
<clipPath id="clip6_29_61">
<rect width="52" height="52" fill="white" transform="translate(83.0327 249.629) rotate(-26.9868)"/>
</clipPath>
</defs>
</svg>
