<svg width="509" height="461" viewBox="0 0 509 461" fill="none" xmlns="http://www.w3.org/2000/svg">
<path d="M430.684 91.7665C485.587 148.877 523.332 231.791 503.773 294.75C483.871 357.709 406.664 400.37 331.516 429.27C256.711 458.169 183.965 473.307 128.376 448.536C72.4443 423.765 32.983 358.741 13.0808 285.117C-6.47826 211.836 -7.16455 129.955 32.2967 76.2847C72.1011 22.6144 151.71 -2.84449 227.544 0.251867C303.722 3.00419 375.781 34.6558 430.684 91.7665Z" fill="#7C39ED"/>
<path d="M46.2974 186L54.2557 222.889L41.13 231.257L25.5769 231.903L11 197.095L46.2974 186ZM41.9195 195.386L30.9267 198.841L19.7393 202.357L21.635 206.518L32.2874 203.17L32.8858 202.982L32.3657 203.419L23.4462 210.919L25.1166 215.044L35.0495 211.957L40.373 210.302L41.8061 216.051L37.2686 219.018L37.2673 219.013L37.23 219.037L32.0411 219.335L30.6486 215.924L30.6326 215.929L26.1735 217.331L26.1578 217.336L28.8667 223.914L38.7548 223.745L38.7533 223.74L38.7711 223.74L46.9442 218.285L43.8917 204.493L33.7094 207.693L33.6843 207.701L33.7059 207.682L42.8428 199.852L41.9195 195.386Z" fill="white" fill-opacity="0.1"/>
<g clip-path="url(#clip0_29_61)">
<path fill-rule="evenodd" clip-rule="evenodd" d="M91.5921 96.6583C87.7212 96.0014 85.5321 93.7313 84.7217 91.1107L88.4493 89.7208C89.0956 91.3322 90.0738 92.6007 92.1302 92.9497C93.856 93.2427 95.105 92.5663 95.3072 91.375C95.6114 89.5827 93.339 88.4765 91.7736 87.4668C88.9828 85.6764 87.2593 83.7293 87.8357 80.3331C88.3662 77.2075 91.153 75.2296 94.8774 75.8618C97.5261 76.3113 99.2772 77.5577 100.237 80.2013L96.6374 81.7355C96.1403 80.3343 95.4521 79.6968 94.2609 79.4946C93.0386 79.2872 92.133 79.9304 91.9613 80.9419C91.749 82.193 92.4373 82.8304 94.0938 83.908C97.5679 86.15 100.189 87.8928 99.4877 92.0233C98.8507 95.7766 95.5539 97.3307 91.5921 96.6583ZM83.0579 88.7445C82.3249 93.0635 79.2777 94.8949 75.5843 94.268C72.248 93.7018 70.4659 92.0866 69.8597 89.7016L69.8265 89.6959L69.8109 89.6933L69.802 89.6918L73.5962 87.8964C74.0536 89.1676 74.5041 90.0909 75.9326 90.3333C77.3035 90.566 78.2776 90.0171 78.6311 87.9341L81.1058 73.3529L85.5424 74.1058L83.0579 88.7445ZM57 94.3656L101.366 101.895L108.895 57.5297L64.5297 50L57 94.3656Z" fill="white" fill-opacity="0.1"/>
</g>
<g clip-path="url(#clip1_29_61)">
<path d="M286.473 41.0619C283.788 41.8166 281.682 43.1904 280.306 45.2533C278.94 47.3014 278.394 49.8777 278.527 52.8599C278.556 53.5108 279.043 54.0495 279.688 54.1443C280.332 54.2392 280.953 53.8634 281.169 53.2485C281.665 51.8314 282.293 50.8874 282.985 50.2988C283.656 49.7287 284.466 49.4238 285.488 49.4113C286.52 49.3987 287.474 49.9428 288.997 50.8834L289.046 50.9138C290.194 51.6229 291.594 52.488 293.315 52.9808C295.101 53.4922 297.172 53.591 299.682 52.8857C302.368 52.131 304.473 50.7572 305.849 48.6942C307.215 46.6462 307.762 44.07 307.628 41.0877C307.599 40.4368 307.112 39.8981 306.468 39.8033C305.823 39.7084 305.202 40.0842 304.987 40.6991C304.491 42.1162 303.863 43.0602 303.17 43.6488C302.499 44.2189 301.689 44.5238 300.667 44.5363C299.635 44.5489 298.681 44.0049 297.158 43.0642L297.109 43.0338C295.961 42.3247 294.561 41.4596 292.84 40.9668C291.055 40.4554 288.983 40.3566 286.473 41.0619Z" fill="white" fill-opacity="0.1"/>
<path d="M280.621 55.4169C277.935 56.1716 275.83 57.5454 274.454 59.6083C273.088 61.6564 272.541 64.2326 272.675 67.215C272.704 67.8658 273.191 68.4044 273.835 68.4992C274.48 68.5941 275.101 68.2184 275.316 67.6034C275.812 66.1865 276.44 65.2423 277.133 64.6538C277.804 64.0837 278.613 63.7788 279.636 63.7663C280.668 63.7537 281.622 64.2978 283.145 65.2385L283.194 65.2687C284.341 65.9778 285.742 66.843 287.463 67.3359C289.248 67.8473 291.32 67.946 293.83 67.2407C296.515 66.486 298.621 65.1123 299.997 63.0492C301.363 61.0011 301.909 58.425 301.776 55.4426C301.747 54.7918 301.26 54.2531 300.615 54.1582C299.971 54.0634 299.35 54.4392 299.134 55.0541C298.638 56.4712 298.01 57.4152 297.318 58.0038C296.647 58.5738 295.837 58.8787 294.815 58.8912C293.783 58.9038 292.829 58.3598 291.306 57.4192L291.257 57.3888C290.109 56.6796 288.709 55.8146 286.988 55.3217C285.202 54.8104 283.131 54.7116 280.621 55.4169Z" fill="white" fill-opacity="0.1"/>
</g>
<g clip-path="url(#clip2_29_61)">
<path fill-rule="evenodd" clip-rule="evenodd" d="M399.128 120.565C404.169 109.207 417.463 104.087 428.821 109.128C440.179 114.169 445.3 127.463 440.259 138.821C437.11 145.915 430.742 150.576 423.637 151.847L416.588 117.514C416.456 116.876 415.928 116.395 415.279 116.325C414.631 116.255 414.012 116.611 413.747 117.208L404.619 137.773L407.361 138.99L414.59 122.703L420.643 152.178C417.286 152.323 413.845 151.714 410.565 150.258C399.207 145.217 394.087 131.923 399.128 120.565ZM423.506 139.591L430.808 123.139L433.55 124.356L426.248 140.808L423.506 139.591Z" fill="white" fill-opacity="0.1"/>
</g>
<g clip-path="url(#clip3_29_61)">
<path d="M179 31.2283V48.9779L184.125 51.9384V40.1031L194.375 46.0224L204.625 40.1031V46.0224L194.375 51.9384V57.8561L204.625 63.772L220 54.8972V43.0619L214.875 46.0224V51.9384L204.625 57.8561L199.5 54.8972L209.75 48.9779V31.2283L194.375 40.1031L179 31.2283ZM220 31.2283L214.875 34.1837V40.1031L220 37.1442V31.2283Z" fill="white" fill-opacity="0.1"/>
</g>
<g clip-path="url(#clip4_29_61)">
<path d="M326.5 117.011C327.376 117.011 328.233 117.271 328.962 117.757C329.692 118.243 330.261 118.933 330.598 119.742C330.936 120.551 331.027 121.442 330.859 122.302C330.692 123.162 330.273 123.953 329.657 124.576C329.04 125.199 328.254 125.626 327.395 125.803C326.537 125.979 325.645 125.898 324.833 125.569C324.021 125.24 323.324 124.679 322.83 123.954C322.337 123.23 322.068 122.376 322.059 121.5C322.056 120.914 322.168 120.333 322.39 119.79C322.611 119.247 322.937 118.753 323.35 118.336C323.762 117.919 324.253 117.588 324.793 117.36C325.334 117.133 325.914 117.014 326.5 117.011ZM315.504 140.5C317 141.403 320.254 140.025 324.054 136.463C322.784 135.019 321.587 133.513 320.468 131.95C318.552 131.736 316.649 131.418 314.767 131C313.556 136.083 314.007 139.574 315.504 140.5ZM317.19 126.868L316.501 125.656C316.233 126.323 316.003 127.005 315.812 127.699C316.454 127.841 317.166 127.96 317.903 128.079L317.19 126.868ZM332.722 125.063L334.646 121.5L332.722 117.938C332.01 116.679 331.25 115.563 330.561 114.446C329.279 114.375 327.925 114.375 326.5 114.375C325.075 114.375 323.721 114.375 322.439 114.375C321.75 115.491 320.99 116.608 320.278 117.866L318.354 121.5L320.278 125.063C320.99 126.321 321.75 127.438 322.439 128.554C323.721 128.554 325.075 128.554 326.5 128.554C327.925 128.554 329.279 128.554 330.561 128.554C331.25 127.438 332.01 126.321 332.722 125.063ZM326.5 109.103C326.049 109.625 325.574 110.171 325.099 110.813H327.901C327.426 110.171 326.951 109.625 326.5 109.103ZM326.5 133.898C326.951 133.375 327.426 132.829 327.901 132.188H325.099C325.574 132.829 326.049 133.375 326.5 133.898ZM337.473 102.5C336 101.598 332.722 102.975 328.946 106.538C330.216 107.981 331.413 109.487 332.532 111.05C334.446 111.233 336.349 111.519 338.233 111.905C339.444 106.823 338.993 103.331 337.473 102.405M335.81 116.038L336.499 117.249C336.767 116.582 336.997 115.9 337.188 115.206C336.546 115.064 335.834 114.945 335.097 114.826L335.81 116.038ZM339.254 99.4126C342.745 101.408 343.125 106.656 341.629 112.784C347.661 114.565 352.007 117.534 352.007 121.524C352.007 125.514 347.661 128.483 341.629 130.264C343.101 136.391 342.721 141.64 339.254 143.635C335.786 145.63 331.06 143.35 326.5 139.004C321.94 143.35 317.214 145.63 313.722 143.635C310.231 141.64 309.875 136.51 311.347 130.264C305.315 128.483 300.969 125.514 300.969 121.524C300.969 117.534 305.315 114.541 311.347 112.76C309.875 106.633 310.255 101.384 313.722 99.3889C317.19 97.3939 321.94 99.6739 326.5 104.02C331.06 99.6739 335.786 97.3939 339.254 99.3889M338.565 121.5C339.39 123.248 340.119 125.04 340.75 126.868C345.737 125.371 348.54 123.234 348.54 121.5C348.54 119.766 345.666 117.629 340.75 116.133C340.119 117.96 339.39 119.752 338.565 121.5ZM314.435 121.5C313.61 119.752 312.881 117.96 312.25 116.133C307.263 117.629 304.46 119.766 304.46 121.5C304.46 123.234 307.334 125.371 312.25 126.868C312.881 125.04 313.61 123.248 314.435 121.5ZM335.81 126.868L335.097 128.079C335.834 128.079 336.546 127.841 337.188 127.699C336.997 127.005 336.767 126.323 336.499 125.656L335.81 126.868ZM328.875 136.463C332.651 140.025 336 141.403 337.401 140.5C338.803 139.598 339.372 136.178 338.161 131C336.278 131.387 334.375 131.672 332.461 131.855C331.345 133.451 330.148 134.988 328.875 136.463ZM317.19 116.133L317.903 114.921C317.166 114.921 316.454 115.159 315.812 115.301C316.003 115.995 316.233 116.677 316.501 117.344L317.19 116.133ZM324.125 106.538C320.277 102.975 317 101.598 315.504 102.5C314.007 103.403 313.556 106.823 314.767 112C316.651 111.614 318.554 111.328 320.468 111.145C321.607 109.548 322.828 108.01 324.125 106.538Z" fill="white" fill-opacity="0.1"/>
</g>
<g clip-path="url(#clip5_29_61)">
<path fill-rule="evenodd" clip-rule="evenodd" d="M403.682 197.92L403.666 197.917L384.168 194.377L383.812 198.987L402.396 202.361C401.404 206.277 399.055 214.527 398.058 218.294L387.087 219.337L387.085 219.346L387.06 219.353L377.283 213.781L378.143 204.971L383.263 205.9L382.778 210.635L388.08 213.788L388.094 213.79L394.142 212.785L396 205.875L378.326 202.666C378.405 201.743 379.446 189.76 379.415 188.839L404.961 193.477C404.546 194.944 404.122 196.452 403.682 197.92ZM373.481 178.411L369.731 220.153L385.606 227.364L403.062 226.117L414.215 185.806L373.481 178.411Z" fill="white" fill-opacity="0.1"/>
</g>
<g clip-path="url(#clip6_29_61)">
<path d="M105.122 208.704C105.597 207.965 106.433 207.54 107.311 207.59L130.654 208.923C131.52 208.973 132.294 209.478 132.687 210.251L143.379 231.247C143.773 232.02 143.726 232.943 143.257 233.672L130.606 253.336C130.131 254.075 129.294 254.501 128.417 254.45L122.581 254.117C121.237 254.04 120.21 252.888 120.287 251.544C120.364 250.201 121.515 249.173 122.859 249.25L127.276 249.502L138.4 232.212L128.978 213.71L108.452 212.538L97.3279 229.828L106.75 248.33L110.945 248.569C112.104 248.381 113.375 247.833 114.048 247.007C114.36 246.624 114.576 246.15 114.6 245.486C114.626 244.787 114.442 243.74 113.69 242.263L105.947 227.059C105.336 225.859 105.814 224.391 107.013 223.781C108.213 223.17 109.681 223.647 110.291 224.847L118.034 240.051C119.052 242.05 119.536 243.924 119.472 245.665C119.407 247.44 118.776 248.923 117.827 250.087C116.017 252.308 113.223 253.198 111.355 253.435C111.207 253.454 111.058 253.459 110.91 253.45L105.074 253.117C104.208 253.067 103.434 252.562 103.041 251.789L92.3484 230.793C91.955 230.02 92.0015 229.097 92.4706 228.368L105.122 208.704ZM114.675 222.736C115.127 220.782 116.464 218.968 118.9 217.728C121.16 216.577 123.276 216.475 125.069 217.114C126.337 217.566 126.998 218.96 126.546 220.229C126.094 221.497 124.699 222.158 123.432 221.706C123.041 221.567 122.316 221.458 121.112 222.072C119.831 222.724 119.52 223.42 119.424 223.836C119.3 224.372 119.437 224.901 119.56 225.142C119.682 225.383 120.029 225.804 120.536 226.019C120.928 226.186 121.674 226.344 122.955 225.692C123.17 225.583 123.392 225.508 123.618 225.467C125.543 224.812 127.32 224.92 128.826 225.559C130.558 226.293 131.69 227.626 132.243 228.712C132.797 229.799 133.209 231.498 132.784 233.331C132.332 235.284 130.995 237.098 128.559 238.338C126.299 239.49 124.182 239.591 122.39 238.952C121.122 238.5 120.46 237.105 120.913 235.838C121.365 234.57 122.759 233.908 124.027 234.36C124.417 234.5 125.142 234.608 126.347 233.994C127.628 233.342 127.939 232.646 128.035 232.23C128.159 231.694 128.022 231.165 127.899 230.924C127.777 230.684 127.43 230.262 126.923 230.047C126.53 229.88 125.785 229.722 124.504 230.374C124.289 230.483 124.066 230.558 123.841 230.6C121.915 231.255 120.138 231.146 118.632 230.507C116.901 229.773 115.769 228.44 115.215 227.354C114.662 226.267 114.25 224.568 114.675 222.736Z" fill="white" fill-opacity="0.1"/>
</g>
<g clip-path="url(#clip7_29_61)">
<path d="M154.5 150L137 167.5" stroke="white" stroke-opacity="0.1" stroke-width="5" stroke-linecap="round" stroke-linejoin="round"/>
<path d="M151 130.75L117.75 164" stroke="white" stroke-opacity="0.1" stroke-width="5" stroke-linecap="round" stroke-linejoin="round"/>
</g>
<defs>
<clipPath id="clip0_29_61">
<rect width="45" height="45" fill="white" transform="translate(64.5297 50) rotate(9.63237)"/>
</clipPath>
<clipPath id="clip1_29_61">
<rect width="40.7893" height="40.7893" fill="white" transform="translate(265 40.0342) rotate(-15.695)"/>
</clipPath>
<clipPath id="clip2_29_61">
<rect width="45" height="45" fill="white" transform="translate(408.256 100) rotate(23.9341)"/>
</clipPath>
<clipPath id="clip3_29_61">
<rect width="41" height="41" fill="white" transform="translate(179 27)"/>
</clipPath>
<clipPath id="clip4_29_61">
<rect width="57" height="57" fill="white" transform="translate(298 93)"/>
</clipPath>
<clipPath id="clip5_29_61">
<rect width="46" height="46" fill="white" transform="translate(371.218 178) rotate(10.2906)"/>
</clipPath>
<clipPath id="clip6_29_61">
<rect width="52" height="52" fill="white" transform="translate(83 219.597) rotate(-26.9868)"/>
</clipPath>
<clipPath id="clip7_29_61">
<rect width="56" height="56" fill="white" transform="translate(109 122)"/>
</clipPath>
</defs>
</svg>
