<svg width="428" height="430" viewBox="0 0 428 430" fill="none" xmlns="http://www.w3.org/2000/svg">
<path d="M352.003 170.383C352.59 171.731 353.178 173.079 354.023 174.993C354.854 176.515 355.427 177.472 356 178.428C357.404 181.463 358.808 184.497 360.53 188.146C363.268 193.475 365.687 198.19 368.106 202.904C371.432 209.936 374.69 217.001 378.096 223.994C391.89 252.31 405.75 280.594 419.547 308.909C427.13 324.474 429.195 340.908 426.164 357.824C420.726 388.18 403.775 410.118 375.758 422.741C367.956 426.256 358.865 427.599 350.225 428.374C341.169 429.185 331.809 429.009 322.827 427.649C310.713 425.815 299.275 420.979 290.189 412.631C282.407 405.481 275.225 397.472 268.877 389.017C258.578 375.3 246.221 365.44 228.955 362.279C207.409 358.335 187.436 361.208 170.682 376.179C164.673 381.548 159.768 388.283 154.948 394.827C140.965 413.812 122.414 425.277 99.1345 428.218C70.1862 431.876 44.5798 424.262 23.9672 402.908C11.6235 390.12 4.48145 374.519 1.28149 357.126C-2.57672 336.154 2.58777 317.001 12.6036 298.556C20.066 284.814 26.4946 270.511 33.4423 256.488C67.9715 186.792 102.314 117.002 137.169 47.4691C150.022 21.8297 171.045 5.51837 199.562 1.18338C229.367 -3.34741 255.849 5.08118 276.707 27.3462C283.029 34.0941 287.703 42.6624 291.995 50.983C305.763 77.671 318.999 104.633 332.749 132.083C334.364 135.146 335.671 137.616 336.979 140.087C336.979 140.087 336.996 140.019 337.025 140.368C338.183 142.907 339.312 145.096 340.44 147.286C340.44 147.286 340.383 147.457 340.559 147.839C342.905 152.432 345.075 156.644 347.245 160.856C347.615 161.769 347.986 162.683 348.653 164.158C349.967 166.607 350.985 168.495 352.003 170.383ZM35.0585 297.903C51.535 281.502 72.1085 275.25 94.6406 273.891C111.13 272.896 127.42 275.171 143.201 279.262C188.519 291.008 227.138 314.529 258.891 348.846C270.169 361.034 279.728 374.794 290.592 387.388C307.118 406.544 328.329 415.244 353.23 410.254C382.153 404.459 401.139 387.347 407.551 357.383C410.677 342.774 409.533 328.88 403.095 315.776C364.703 237.628 326.028 159.62 287.43 81.5738C286.84 80.3812 286.026 79.2994 285.317 78.166C284.153 82.6093 284.25 86.7044 284.118 90.7921C284.032 93.4364 283.815 96.1099 283.307 98.7015C280.44 113.316 272.936 125.291 261.867 135.024C247.206 147.918 229.418 153.722 210.606 151.439C189.408 148.866 168.386 145.088 146.949 145.936C127.756 146.695 111.293 153.816 99.0452 168.956C94.7922 174.214 91.1431 180.129 88.1385 186.199C69.8246 223.2 51.7759 260.331 33.3141 297.907C33.3625 298.192 33.411 298.477 33.4595 298.762C33.7954 298.578 34.1314 298.394 35.0585 297.903ZM32.5077 300.247L32.6869 300.347C32.6869 300.347 32.6573 300.131 32.5077 300.247Z" fill="#7C39ED"/>
</svg>
