<svg width="833" height="833" viewBox="0 0 833 833" fill="none" xmlns="http://www.w3.org/2000/svg">
<rect width="833" height="833" rx="200" fill="#7C39ED"/>
<path d="M169.41 533.81H129.29L120.11 552H80.5L145.78 431.64H189.3L211.91 552H172.13L169.41 533.81ZM165.33 505.42L160.4 471.93L143.57 505.42H165.33ZM338.974 456.12L321.974 552H284.234L286.784 537.55C283.044 542.083 278.454 545.767 273.014 548.6C267.574 551.32 261.511 552.68 254.824 552.68C245.531 552.68 238.391 550.017 233.404 544.69C228.418 539.25 225.924 531.827 225.924 522.42C225.924 519.02 226.264 515.45 226.944 511.71L236.804 456.12H274.374L265.364 506.95C265.138 508.763 265.024 510.01 265.024 510.69C265.024 514.203 265.988 516.923 267.914 518.85C269.954 520.777 272.731 521.74 276.244 521.74C280.324 521.74 283.781 520.437 286.614 517.83C289.448 515.223 291.318 511.653 292.224 507.12L301.234 456.12H338.974ZM382.88 553.19C374.493 553.19 367.013 551.943 360.44 549.45C353.98 546.957 348.88 543.5 345.14 539.08C341.513 534.547 339.7 529.39 339.7 523.61C339.7 521.457 339.813 519.87 340.04 518.85H376.25C376.136 521.683 376.93 523.78 378.63 525.14C380.443 526.5 382.88 527.18 385.94 527.18C387.866 527.18 389.51 526.727 390.87 525.82C392.343 524.913 393.08 523.837 393.08 522.59C393.08 520.777 391.946 519.36 389.68 518.34C387.413 517.207 383.673 515.96 378.46 514.6C371.886 512.787 366.39 510.917 361.97 508.99C357.663 507.063 353.866 504.23 350.58 500.49C347.406 496.637 345.82 491.65 345.82 485.53C345.82 479.863 347.52 474.707 350.92 470.06C354.433 465.3 359.306 461.617 365.54 459.01C371.886 456.29 379.196 454.93 387.47 454.93C396.536 454.93 404.3 456.46 410.76 459.52C417.333 462.58 422.263 466.717 425.55 471.93C428.836 477.143 430.366 482.923 430.14 489.27H396.65C396.65 486.663 395.856 484.68 394.27 483.32C392.683 481.847 390.36 481.11 387.3 481.11C385.373 481.11 383.73 481.507 382.37 482.3C381.123 483.093 380.5 484.17 380.5 485.53C380.5 487.23 381.633 488.647 383.9 489.78C386.166 490.8 390.02 492.16 395.46 493.86C402.146 495.787 407.643 497.713 411.95 499.64C416.37 501.453 420.223 504.23 423.51 507.97C426.796 511.597 428.44 516.243 428.44 521.91C428.44 531.77 424.19 539.477 415.69 545.03C407.303 550.47 396.366 553.19 382.88 553.19ZM487.957 513.41C487.843 513.863 487.787 514.43 487.787 515.11C487.787 518.283 489.827 519.87 493.907 519.87H502.917L497.137 552H482.857C460.53 552 449.367 542.537 449.367 523.61C449.367 520.21 449.707 516.583 450.387 512.73L454.807 487.57H442.907L448.517 456.12H460.417L464.497 433H502.237L498.157 456.12H513.797L508.187 487.57H492.547L487.957 513.41ZM548.91 448.47C543.016 448.47 538.37 447.053 534.97 444.22C531.683 441.387 530.04 437.703 530.04 433.17C530.04 429.203 531.116 425.52 533.27 422.12C535.423 418.72 538.426 416.057 542.28 414.13C546.246 412.09 550.61 411.07 555.37 411.07C561.15 411.07 565.683 412.543 568.97 415.49C572.37 418.323 574.07 422.063 574.07 426.71C574.07 430.677 572.993 434.303 570.84 437.59C568.686 440.877 565.683 443.54 561.83 445.58C557.976 447.507 553.67 448.47 548.91 448.47ZM566.25 456.12L549.25 552H511.51L528.51 456.12H566.25ZM650.445 455.44C659.738 455.44 666.878 458.16 671.865 463.6C676.852 468.927 679.345 476.293 679.345 485.7C679.345 489.1 679.005 492.67 678.325 496.41L668.465 552H630.895L639.905 501.17C640.132 499.357 640.245 498.11 640.245 497.43C640.245 493.917 639.225 491.197 637.185 489.27C635.258 487.343 632.538 486.38 629.025 486.38C624.945 486.38 621.488 487.683 618.655 490.29C615.822 492.897 613.952 496.467 613.045 501L604.035 552H566.295L583.295 456.12H621.035L618.485 470.57C622.225 466.037 626.815 462.41 632.255 459.69C637.695 456.857 643.758 455.44 650.445 455.44ZM195.25 581.64L189.98 611.56H142.72L139.83 628.22H173.83L168.73 656.61H134.73L126.74 702H89L110.25 581.64H195.25ZM190.183 654.06C191.997 643.973 195.283 635.247 200.043 627.88C204.803 620.4 210.527 614.733 217.213 610.88C223.9 606.913 230.983 604.93 238.463 604.93C244.697 604.93 249.853 606.233 253.933 608.84C258.013 611.333 260.847 614.79 262.433 619.21L264.813 606.12H302.383L285.383 702H247.813L250.193 688.91C247.02 693.33 242.94 696.843 237.953 699.45C232.967 701.943 227.357 703.19 221.123 703.19C211.49 703.19 203.727 699.96 197.833 693.5C191.94 687.04 188.993 678.087 188.993 666.64C188.993 662.333 189.39 658.14 190.183 654.06ZM256.313 654.06C256.54 653.04 256.653 651.68 256.653 649.98C256.653 646.127 255.633 643.18 253.593 641.14C251.553 638.987 248.777 637.91 245.263 637.91C241.183 637.91 237.557 639.327 234.383 642.16C231.323 644.993 229.34 648.96 228.433 654.06C228.207 655.08 228.093 656.44 228.093 658.14C228.093 661.993 229.113 664.997 231.153 667.15C233.193 669.19 235.97 670.21 239.483 670.21C243.563 670.21 247.133 668.793 250.193 665.96C253.367 663.127 255.407 659.16 256.313 654.06ZM354.01 623.8C358.883 618.247 364.323 613.827 370.33 610.54C376.45 607.14 382.513 605.44 388.52 605.44L381.55 645.73H370.84C363.7 645.73 358.203 646.977 354.35 649.47C350.61 651.963 348.173 656.383 347.04 662.73L340.07 702H302.33L319.33 606.12H357.07L354.01 623.8ZM433.366 623.8C438.239 618.247 443.679 613.827 449.686 610.54C455.806 607.14 461.869 605.44 467.876 605.44L460.906 645.73H450.196C443.056 645.73 437.559 646.977 433.706 649.47C429.966 651.963 427.529 656.383 426.396 662.73L419.426 702H381.686L398.686 606.12H436.426L433.366 623.8Z" fill="white"/>
</svg>
