<svg width="800" height="800" viewBox="0 0 800 800" fill="none" xmlns="http://www.w3.org/2000/svg">
<path d="M766.975 334.175C751.65 324.075 732.825 318.05 712.6 318.05C710.275 318.05 707.975 318.125 705.7 318.275L706 318.25C694.85 318.275 683.95 319.275 673.35 321.125L674.5 320.95C668.625 287.025 648.875 258.575 621.45 241.175L620.975 240.9L610.25 234.7L603.2 244.9C594.8 257.7 588.225 272.6 584.3 288.525L584.1 289.5C581.875 297.6 580.6 306.9 580.6 316.5C580.6 337.275 586.6 356.625 596.95 372.95L596.7 372.525C580.775 380 562.175 384.725 542.6 385.625H542.275H49.05C36.15 385.65 25.7 396.075 25.65 408.95C25.625 410.35 25.625 412.025 25.625 413.7C25.625 457.475 33.55 499.4 48.05 538.125L47.25 535.675C61.2 576.5 87.55 610.05 121.75 632.7L122.45 633.125C166.05 655.7 217.65 668.925 272.325 668.925C277.5 668.925 282.625 668.8 287.75 668.575L287.025 668.6C287.475 668.6 288 668.6 288.525 668.6C320.325 668.6 351.4 665.575 381.525 659.8L378.45 660.3C423.325 651.9 463.325 636.825 499.575 615.975L497.725 616.95C529.15 598.575 556 576.425 578.85 550.65L579.15 550.3C612.275 511.3 639.225 465.775 657.775 416.175L658.8 413.05H665.7C667.075 413.1 668.675 413.15 670.275 413.15C700.925 413.15 728.775 401.125 749.35 381.525L749.3 381.575C758.725 372.625 766.2 361.75 771.125 349.55L771.35 348.95L774.4 339.975L766.975 334.175ZM94.75 371.225H160.9C164.075 371.2 166.65 368.625 166.65 365.45V306.575C166.65 303.4 164.075 300.8 160.9 300.775H94.75C91.575 300.8 89 303.375 89 306.55V365.45C89 368.625 91.575 371.225 94.75 371.225ZM185.85 371.225H251.95C255.125 371.225 257.725 368.65 257.725 365.45V306.575C257.725 303.4 255.15 300.8 251.975 300.775H185.825C182.625 300.775 180.025 303.375 180.025 306.575V365.45C180.05 368.65 182.65 371.225 185.85 371.225ZM278.3 371.225H344.45C347.625 371.2 350.2 368.625 350.2 365.45V306.575C350.2 303.4 347.625 300.8 344.45 300.775H278.3C275.125 300.8 272.55 303.375 272.55 306.55V365.45C272.55 368.625 275.125 371.225 278.325 371.225H278.3ZM369.7 371.225H435.775C438.975 371.225 441.55 368.65 441.575 365.45V306.575C441.575 303.375 438.975 300.775 435.775 300.775H369.7C366.525 300.775 363.925 303.35 363.925 306.55V365.45C363.925 368.625 366.5 371.225 369.675 371.225C369.675 371.225 369.675 371.225 369.7 371.225ZM185.85 286.525H251.95C255.15 286.5 257.725 283.925 257.725 280.725V221.85C257.725 218.675 255.15 216.075 251.95 216.075H185.85C182.65 216.075 180.075 218.65 180.05 221.85V280.725C180.075 283.925 182.65 286.5 185.85 286.525ZM278.3 286.525H344.45C347.625 286.5 350.2 283.9 350.2 280.725V221.85C350.2 218.675 347.625 216.075 344.425 216.075H278.35C275.175 216.075 272.575 218.65 272.575 221.85V280.725C272.6 283.925 275.15 286.5 278.35 286.525H278.3ZM369.7 286.525H435.775C438.975 286.5 441.55 283.925 441.575 280.725V221.85C441.55 218.65 438.975 216.075 435.775 216.075H369.7C366.525 216.075 363.925 218.65 363.925 221.85V280.725C363.925 283.925 366.5 286.5 369.7 286.525ZM369.7 201.825H435.775C438.975 201.825 441.575 199.225 441.575 196.025V137.125C441.55 133.925 438.975 131.35 435.775 131.35H369.7C366.525 131.35 363.925 133.925 363.925 137.125V196.025C363.925 199.2 366.5 201.8 369.675 201.8C369.675 201.8 369.675 201.8 369.7 201.8V201.825ZM461.875 371.225H527.975C531.175 371.225 533.75 368.65 533.775 365.45V306.575C533.775 303.375 531.175 300.775 527.975 300.775H461.875C458.675 300.775 456.1 303.35 456.1 306.55V365.45C456.1 368.625 458.675 371.225 461.875 371.225Z" fill="#7C39ED"/>
</svg>
