<svg width="800" height="800" viewBox="0 0 800 800" fill="none" xmlns="http://www.w3.org/2000/svg">
<g clip-path="url(#clip0_17_44)">
<path fill-rule="evenodd" clip-rule="evenodd" d="M0 400C0 179.086 179.086 0 400 0C620.912 0 800 179.086 800 400C800 537.973 730.144 659.632 623.867 731.536L261.7 224.502C254.962 215.069 242.901 211.07 231.862 214.607C220.822 218.145 213.333 228.41 213.333 240.002V640H266.667V323.214L577.595 758.512C524.086 785.072 463.787 800 400 800C179.086 800 0 620.912 0 400ZM533.333 533.333V213.333H586.667V533.333H533.333Z" fill="#7C39ED"/>
</g>
<defs>
<clipPath id="clip0_17_44">
<rect width="800" height="800" fill="white"/>
</clipPath>
</defs>
</svg>
